<svg viewBox="0 0 600 400" xmlns="http://www.w3.org/2000/svg">
<g transform="translate(72, 364)">
<g>
<g>
<path d="M0,-340 L0,-340 L4.848485,-322.8931 L9.69697,-305.78616 L14.545455,-288.67926 L19.39394,-271.57233 L24.242424,-254.46541 L29.09091,-237.35849 L33.939392,-220.25157 L38.78788,-203.14465 L43.636364,-186.03773 L48.484848,-168.93082 L53.333332,-160.37737 L58.18182,-151.8239 L63.030304,-143.27045 L67.878784,-134.71698 L72.72727,-126.16352 L77.57576,-117.61006 L82.42424,-109.0566 L87.27273,-100.50314 L92.121216,-91.949684 L96.969696,-83.396225 L101.818184,-79.1195 L106.666664,-74.842766 L111.51515,-70.56604 L116.36364,-66.28931 L121.21212,-62.012577 L126.06061,-57.735847 L130.90909,-53.459118 L135.75757,-49.18239 L140.60606,-44.90566 L145.45454,-40.62893 L150.30302,-38.490566 L155.15152,-36.3522 L160,-34.213837 L164.84848,-32.07547 L169.69698,-29.937107 L174.54546,-27.798742 L179.39394,-25.660378 L184.24243,-23.522013 L189.09091,-21.383648 L193.93939,-19.245283 L198.78787,-18.1761 L203.63637,-17.106918 L208.48485,-16.037735 L213.33333,-14.968554 L218.18182,-13.899371 L223.0303,-12.830189 L227.87878,-11.761006 L232.72728,-10.691824 L237.57576,-9.622642 L242.42424,-8.553459 L247.27272,-8.0188675 L252.12122,-7.484277 L256.9697,-6.9496856 L261.81818,-6.4150944 L266.66666,-5.880503 L271.51514,-5.345912 L276.36365,-4.811321 L281.21213,-4.2767296 L286.0606,-3.7421384 L290.9091,-3.2075472 L295.75757,-2.9402516 L300.60605,-2.672956 L305.45456,-2.4056604 L310.30304,-2.1383648 L315.15152,-1.8710692 L320,-1.6037736 L324.84848,-1.336478 L329.69696,-1.0691824 L334.54544,-0.8018868 L339.39395,-0.5345912 L344.24243,-0.4009434 L349.0909,-0.2672956 L353.9394,-0.1336478 L358.78787,-0 L363.63635,-65.234825 L368.48486,-65.09834 L373.33334,-64.96186 L378.18182,-64.82538 L383.0303,-64.688896 L387.87878,-64.552414 L392.72726,-64.48417 L397.57574,-64.41593 L402.42426,-64.34769 L407.27274,-64.27944 L412.12122,-64.211205 L416.9697,-64.14296 L421.81818,-64.07472 L426.66666,-64.00648 L431.51514,-63.938236 L436.36365,-63.869995 L441.21213,-63.835876 L446.0606,-63.801754 L450.9091,-63.76763 L455.75757,-63.733513 L460.60605,-63.69939 L465.45456,-63.66527 L470.30304,-63.63115 L475.15152,-63.59703 L480,-63.56291" fill="none" stroke="cyan" stroke-linejoin="round" stroke-width="2"/>
</g>
</g>
<g>
<g>
<line stroke="black" stroke-width="1" x1="0" x2="0" y1="0" y2="10"/>
<line stroke="black" stroke-width="1" x1="96.96969696969697" x2="96.96969696969697" y1="0" y2="10"/>
<line stroke="black" stroke-width="1" x1="193.93939393939394" x2="193.93939393939394" y1="0" y2="10"/>
<line stroke="black" stroke-width="1" x1="290.90909090909093" x2="290.90909090909093" y1="0" y2="10"/>
<line stroke="black" stroke-width="1" x1="387.8787878787879" x2="387.8787878787879" y1="0" y2="10"/>
</g>
<line stroke="black" stroke-width="1" x1="0" x2="480" y1="0" y2="0"/>
<g>
<text font-size="12" text-anchor="middle" x="0" y="20">
0
</text>
<text font-size="12" text-anchor="middle" x="96.96969696969697" y="20">
20
</text>
<text font-size="12" text-anchor="middle" x="193.93939393939394" y="20">
40
</text>
<text font-size="12" text-anchor="middle" x="290.90909090909093" y="20">
60
</text>
<text font-size="12" text-anchor="middle" x="387.8787878787879" y="20">
80
</text>
</g>
<text font-size="12" text-anchor="middle" x="240" y="30">

</text>
</g>
<g>
<g>
<line stroke="black" stroke-width="1" x1="0" x2="-10" y1="-0" y2="-0"/>
<line stroke="black" stroke-width="1" x1="0" x2="-10" y1="-68.4276729559752" y2="-68.4276729559752"/>
<line stroke="black" stroke-width="1" x1="0" x2="-10" y1="-136.85534591194974" y2="-136.85534591194974"/>
<line stroke="black" stroke-width="1" x1="0" x2="-10" y1="-205.28301886792434" y2="-205.28301886792434"/>
<line stroke="black" stroke-width="1" x1="0" x2="-10" y1="-273.7106918238995" y2="-273.7106918238995"/>
</g>
<line stroke="black" stroke-width="1" x1="0" x2="0" y1="0" y2="-340"/>
<g>
<text dominant-baseline="middle" font-size="12" text-anchor="end" x="-15" y="-0">
9.00625
</text>
<text dominant-baseline="middle" font-size="12" text-anchor="end" x="-15" y="-68.4276729559752">
9.20625
</text>
<text dominant-baseline="middle" font-size="12" text-anchor="end" x="-15" y="-136.85534591194974">
9.40625
</text>
<text dominant-baseline="middle" font-size="12" text-anchor="end" x="-15" y="-205.28301886792434">
9.60625
</text>
<text dominant-baseline="middle" font-size="12" text-anchor="end" x="-15" y="-273.7106918238995">
9.80625
</text>
</g>
<text font-size="12" text-anchor="middle" transform="rotate(-90 -84 -170)" x="-84" y="-182">

</text>
</g>
</g>
</svg>